<svg width="40" height="40" viewBox="0 0 40 40" fill="none" xmlns="http://www.w3.org/2000/svg">
<path d="M20.1667 30.9167L20 31.0833L19.8167 30.9167C11.9 23.7333 6.66671 18.9833 6.66671 14.1667C6.66671 10.8333 9.16671 8.33333 12.5 8.33333C15.0667 8.33333 17.5667 10 18.45 12.2667H21.55C22.4334 10 24.9334 8.33333 27.5 8.33333C30.8334 8.33333 33.3334 10.8333 33.3334 14.1667C33.3334 18.9833 28.1 23.7333 20.1667 30.9167ZM27.5 5C24.6 5 21.8167 6.35 20 8.46667C18.1834 6.35 15.4 5 12.5 5C7.36671 5 3.33337 9.01667 3.33337 14.1667C3.33337 20.45 9.00004 25.6 17.5834 33.3833L20 35.5833L22.4167 33.3833C31 25.6 36.6667 20.45 36.6667 14.1667C36.6667 9.01667 32.6334 5 27.5 5Z" fill="#A3A6B1"/>
</svg>
