<svg width="30" height="30" viewBox="0 0 30 30" fill="none" xmlns="http://www.w3.org/2000/svg">
<g clip-path="url(#clip0_361_13)">
<path d="M17.85 2.5C18.3747 2.50014 18.8861 2.66536 19.3116 2.97226C19.7372 3.27916 20.0554 3.71219 20.2213 4.21L20.9 6.25H25C25.3315 6.25 25.6495 6.3817 25.8839 6.61612C26.1183 6.85054 26.25 7.16848 26.25 7.5C26.25 7.83152 26.1183 8.14946 25.8839 8.38388C25.6495 8.6183 25.3315 8.75 25 8.75L24.9963 8.83875L23.9125 24.0175C23.8449 24.9633 23.4215 25.8483 22.7275 26.4944C22.0336 27.1406 21.1207 27.4999 20.1725 27.5H9.8275C8.87932 27.4999 7.96638 27.1406 7.27246 26.4944C6.57853 25.8483 6.15514 24.9633 6.0875 24.0175L5.00375 8.8375C5.00149 8.80839 5.00024 8.7792 5 8.75C4.66848 8.75 4.35054 8.6183 4.11612 8.38388C3.8817 8.14946 3.75 7.83152 3.75 7.5C3.75 7.16848 3.8817 6.85054 4.11612 6.61612C4.35054 6.3817 4.66848 6.25 5 6.25H9.1L9.77875 4.21C9.94462 3.71199 10.263 3.27881 10.6889 2.97189C11.1147 2.66497 11.6263 2.49987 12.1512 2.5H17.85ZM22.4963 8.75H7.50375L8.58125 23.8387C8.60369 24.154 8.74472 24.4491 8.97595 24.6645C9.20718 24.88 9.51145 24.9998 9.8275 25H20.1725C20.4886 24.9998 20.7928 24.88 21.0241 24.6645C21.2553 24.4491 21.3963 24.154 21.4188 23.8387L22.4963 8.75ZM12.5 12.5C12.8062 12.5 13.1017 12.6124 13.3305 12.8159C13.5593 13.0193 13.7054 13.2997 13.7413 13.6038L13.75 13.75V20C13.7496 20.3186 13.6277 20.625 13.4089 20.8567C13.1902 21.0884 12.8913 21.2278 12.5733 21.2465C12.2552 21.2651 11.942 21.1617 11.6977 20.9572C11.4534 20.7527 11.2964 20.4626 11.2587 20.1463L11.25 20V13.75C11.25 13.4185 11.3817 13.1005 11.6161 12.8661C11.8505 12.6317 12.1685 12.5 12.5 12.5ZM17.5 12.5C17.8315 12.5 18.1495 12.6317 18.3839 12.8661C18.6183 13.1005 18.75 13.4185 18.75 13.75V20C18.75 20.3315 18.6183 20.6495 18.3839 20.8839C18.1495 21.1183 17.8315 21.25 17.5 21.25C17.1685 21.25 16.8505 21.1183 16.6161 20.8839C16.3817 20.6495 16.25 20.3315 16.25 20V13.75C16.25 13.4185 16.3817 13.1005 16.6161 12.8661C16.8505 12.6317 17.1685 12.5 17.5 12.5ZM17.85 5H12.15L11.7338 6.25H18.2662L17.85 5Z" fill="#333333"/>
</g>
<defs>
<clipPath id="clip0_361_13">
<rect width="30" height="30" fill="white"/>
</clipPath>
</defs>
</svg>
