<svg width="40" height="40" viewBox="0 0 40 40" fill="none" xmlns="http://www.w3.org/2000/svg">
<path d="M12.5 20C12.5 19.6685 12.6317 19.3505 12.8661 19.1161C13.1005 18.8817 13.4185 18.75 13.75 18.75H25V10.625C25 8.125 22.3602 6.25 20 6.25H8.125C6.96506 6.25124 5.85298 6.71258 5.03278 7.53278C4.21258 8.35298 3.75124 9.46506 3.75 10.625V29.375C3.75124 30.5349 4.21258 31.647 5.03278 32.4672C5.85298 33.2874 6.96506 33.7488 8.125 33.75H20.625C21.7849 33.7488 22.897 33.2874 23.7172 32.4672C24.5374 31.647 24.9988 30.5349 25 29.375V21.25H13.75C13.4185 21.25 13.1005 21.1183 12.8661 20.8839C12.6317 20.6495 12.5 20.3315 12.5 20ZM35.8836 19.1164L29.6336 12.8664C29.3973 12.6419 29.0826 12.5186 28.7566 12.5227C28.4307 12.5269 28.1192 12.6582 27.8887 12.8887C27.6582 13.1192 27.5269 13.4307 27.5227 13.7566C27.5186 14.0826 27.6419 14.3973 27.8664 14.6336L31.982 18.75H25V21.25H31.982L27.8664 25.3664C27.7454 25.4813 27.6487 25.6193 27.5819 25.7722C27.5151 25.9251 27.4796 26.0898 27.4775 26.2566C27.4753 26.4235 27.5066 26.589 27.5695 26.7436C27.6323 26.8981 27.7255 27.0385 27.8435 27.1565C27.9615 27.2745 28.1019 27.3677 28.2564 27.4305C28.411 27.4934 28.5765 27.5247 28.7434 27.5225C28.9102 27.5204 29.0749 27.4849 29.2278 27.4181C29.3807 27.3513 29.5187 27.2546 29.6336 27.1336L35.8836 20.8836C36.1178 20.6492 36.2494 20.3314 36.2494 20C36.2494 19.6686 36.1178 19.3508 35.8836 19.1164Z" fill="#4EA8DE"/>
</svg>
