<svg width="30" height="30" viewBox="0 0 30 30" fill="none" xmlns="http://www.w3.org/2000/svg">
<path d="M6.25 23.75H8L18.7813 12.9688L17.0313 11.2188L6.25 22V23.75ZM24.125 11.1562L18.8125 5.90625L20.5625 4.15625C21.0417 3.67708 21.6304 3.4375 22.3288 3.4375C23.0271 3.4375 23.6154 3.67708 24.0938 4.15625L25.8438 5.90625C26.3229 6.38542 26.5729 6.96375 26.5938 7.64125C26.6146 8.31875 26.3854 8.89667 25.9063 9.375L24.125 11.1562ZM5 26.25C4.64584 26.25 4.34875 26.13 4.10875 25.89C3.86875 25.65 3.74917 25.3533 3.75 25V21.4688C3.75 21.3021 3.78125 21.1404 3.84375 20.9838C3.90625 20.8271 4 20.6867 4.125 20.5625L17 7.6875L22.3125 13L9.4375 25.875C9.3125 26 9.17209 26.0937 9.01625 26.1562C8.86042 26.2188 8.69875 26.25 8.53125 26.25H5ZM17.9063 12.0938L17.0313 11.2188L18.7813 12.9688L17.9063 12.0938Z" fill="#333333"/>
</svg>
